<svg width="26" height="28" viewBox="0 0 26 28" fill="none" xmlns="http://www.w3.org/2000/svg">
<path d="M13 27C19.6274 27 25 21.1797 25 14C25 6.8203 19.6274 1 13 1C6.37258 1 1 6.8203 1 14C1 21.1797 6.37258 27 13 27Z" stroke="black" stroke-width="2" stroke-linecap="round" stroke-linejoin="round"/>
<path d="M9 8.22222H14.4533C15.86 8.22222 17 9.515 17 11.1111C17 12.7072 15.86 14 14.4533 14C15.86 14 17 15.2928 17 16.8889C17 18.485 15.86 19.7778 14.4533 19.7778H9M10.3333 14H15.6667M10.3333 6.77778V21.2222V8.22222M14.3333 6.77778V8.22222M14.3333 19.7778V21.2222" stroke="black" stroke-width="2" stroke-linecap="round" stroke-linejoin="round"/>
</svg>
