<svg width="24" height="20" viewBox="0 0 24 20" fill="none" xmlns="http://www.w3.org/2000/svg">
<path d="M12.9 8.75C12.3 8.625 11.7 8.375 11.25 8C10.8 7.875 10.65 7.5 10.65 7.25C10.65 7 10.8 6.625 11.1 6.5C11.55 6.25 12 6 12.45 6.125C13.35 6.125 14.1 6.5 14.55 7L15.9 5.5C15.45 5.125 15 4.875 14.55 4.625C14.1 4.375 13.5 4.25 12.9 4.25V2.5H11.1V4.25C10.35 4.375 9.6 4.75 9 5.25C8.4 5.875 7.95 6.625 8.1 7.375C8.1 8.125 8.4 8.875 9 9.375C9.75 10 10.8 10.375 11.7 10.75C12.15 10.875 12.75 11.125 13.2 11.375C13.5 11.625 13.65 12 13.65 12.375C13.65 12.75 13.5 13.125 13.2 13.5C12.75 13.875 12.15 14 11.7 14C11.1 14 10.35 13.875 9.9 13.5C9.45 13.25 9 12.875 8.7 12.5L7.2 13.875C7.65 14.375 8.1 14.75 8.7 15.125C9.45 15.5 10.35 15.875 11.25 15.875V17.5H12.9V15.625C13.8 15.5 14.55 15.125 15.15 14.625C15.9 14 16.35 13 16.35 12.125C16.35 11.375 16.05 10.5 15.3 10C14.55 9.375 13.8 9 12.9 8.75ZM12 0C5.4 0 0 4.5 0 10C0 15.5 5.4 20 12 20C18.6 20 24 15.5 24 10C24 4.5 18.6 0 12 0ZM12 18.625C6.3 18.625 1.65 14.75 1.65 10C1.65 5.25 6.3 1.375 12 1.375C17.7 1.375 22.35 5.25 22.35 10C22.35 14.75 17.7 18.625 12 18.625Z" fill="black"/>
</svg>
